<svg xmlns="http://www.w3.org/2000/svg" viewBox="0 308.5 612 175" role="img" aria-label="omusiclab">
<path class="oml-logo-type" d="M189.051,412.859c0,4.043-0.667,7.669-1.959,10.878c-1.292,3.209-3.084,5.96-5.376,8.169  c-2.292,2.209-5.001,3.959-8.044,5.126c-3.042,1.167-6.418,1.792-9.961,1.792c-3.543,0-6.877-0.542-9.919-1.625  c-3.042-1.084-5.668-2.709-7.919-4.835c-2.209-2.126-3.959-4.751-5.251-7.835c-1.25-3.126-1.917-6.668-1.917-10.628  c0-4.168,0.667-7.877,1.959-11.128c1.292-3.251,3.084-6.002,5.376-8.211c2.292-2.209,4.96-3.918,8.044-5.085  c3.084-1.167,6.418-1.75,9.961-1.75c3.543,0,6.877,0.542,9.919,1.625c3.042,1.084,5.668,2.667,7.919,4.793  c2.209,2.084,3.959,4.71,5.251,7.835C188.385,405.148,189.051,408.774,189.051,412.859L189.051,412.859z M174.964,413.401  c0-2.792-0.292-5.21-0.917-7.169c-0.625-2.001-1.417-3.584-2.459-4.835s-2.209-2.126-3.584-2.709s-2.751-0.875-4.209-0.875  s-2.792,0.25-4.126,0.75c-1.334,0.5-2.459,1.375-3.501,2.584c-1.042,1.209-1.834,2.792-2.459,4.793  c-0.625,2.001-0.917,4.501-0.917,7.502c0,2.667,0.292,4.96,0.917,6.919c0.625,1.959,1.459,3.543,2.501,4.793  s2.251,2.167,3.584,2.792c1.334,0.625,2.709,0.917,4.168,0.917s2.792-0.25,4.126-0.75c1.334-0.5,2.459-1.375,3.501-2.626  c1.042-1.25,1.834-2.834,2.459-4.793c0.625-1.959,0.917-4.376,0.917-7.252V413.401z"></path>
<path class="oml-logo-letter-lavender" d="M209.891,437.699h-13.67v-48.972h10.67l1.625,6.252c2.209-2.251,4.585-4.043,7.169-5.335  c2.584-1.292,5.543-1.959,8.836-1.959c7.002,0,11.753,2.542,14.254,7.585c2.209-2.376,4.71-4.251,7.502-5.585  c2.792-1.334,5.835-2.001,9.044-2.001c5.21,0,9.169,1.417,11.962,4.209c2.751,2.792,4.168,6.877,4.168,12.212v33.592h-13.67v-32.05  c0-2.334-0.583-4.168-1.709-5.501c-1.125-1.334-2.792-2.001-4.96-2.001c-1.834,0-3.709,0.458-5.585,1.334  c-1.876,0.875-3.501,2.167-4.876,3.793v34.384h-13.67v-32.05c0-2.334-0.583-4.168-1.709-5.501c-1.125-1.334-2.792-2.001-5.001-2.001  c-1.834,0-3.709,0.5-5.585,1.5c-1.876,1-3.501,2.334-4.876,4.043v33.968L209.891,437.699z"></path>
<path class="oml-logo-letter-cyan" d="M312.96,388.727h13.67v48.972h-10.169l-1.417-5.543h-0.417c-0.75,0.75-1.625,1.542-2.626,2.292  c-1,0.792-2.167,1.5-3.501,2.167c-1.334,0.667-2.834,1.167-4.501,1.584c-1.667,0.417-3.543,0.625-5.585,0.625  c-5.293,0-9.419-1.459-12.462-4.418s-4.585-7.294-4.585-13.045v-32.634h13.67v31.509c0,2.959,0.709,5.085,2.126,6.377  s3.209,1.959,5.376,1.959c2.459,0,4.585-0.5,6.335-1.542c1.75-1.042,3.126-2.209,4.168-3.584v-34.718H312.96z"></path>
<path class="oml-logo-letter-rose" d="M365.975,400.439c-4.043-1.917-7.961-2.876-11.712-2.876c-2.209,0-3.876,0.375-5.085,1.125  s-1.792,1.792-1.792,3.084s0.542,2.376,1.584,3.168c1.042,0.834,3.209,1.709,6.418,2.667l3.084,0.917  c4.251,1.25,7.46,3.001,9.669,5.335c2.209,2.334,3.293,5.335,3.293,9.044c0,4.876-1.875,8.711-5.585,11.586  s-8.794,4.335-15.129,4.335c-6.335,0-12.087-1.167-16.755-3.501l3.084-10.044c2.001,1.042,4.084,1.876,6.252,2.501  c2.209,0.667,4.418,0.959,6.668,0.959c2.751,0,4.751-0.417,6.002-1.292c1.25-0.875,1.917-1.959,1.917-3.334  c0-1.375-0.625-2.542-1.834-3.334c-1.25-0.792-3.543-1.667-7.002-2.626l-3.168-0.917c-4.126-1.375-7.127-3.168-9.044-5.46  c-1.917-2.251-2.876-5.293-2.876-9.044c0-4.46,1.667-8.086,5.043-10.878c3.334-2.792,8.044-4.209,14.046-4.209  c6.002,0,11.211,1.042,15.796,3.168l-2.876,9.544V400.439z"></path>
<path class="oml-logo-letter-mint" d="M386.522,378.266c-2.334,0-4.126-0.667-5.46-2.001c-1.292-1.334-1.959-3.001-1.959-4.96  s0.667-3.626,1.959-5.001c1.292-1.334,3.126-2.001,5.46-2.001s4.043,0.667,5.376,2.001c1.334,1.334,2.001,3.001,2.001,5.001  s-0.667,3.626-1.959,4.96c-1.292,1.334-3.126,2.001-5.46,2.001H386.522z M379.603,437.699v-48.972h13.67v48.972H379.603z"></path>
<path class="oml-logo-letter-cream" d="M429.95,428.78c2.209,0,4.126-0.292,5.793-0.875c1.667-0.583,3.043-1.125,4.168-1.709l2.584,9.461  c-1.375,0.75-3.334,1.459-5.96,2.167c-2.584,0.667-5.46,1.042-8.502,1.042c-3.709,0-7.169-0.542-10.378-1.625  c-3.209-1.084-6.002-2.709-8.377-4.876s-4.21-4.793-5.585-7.961c-1.375-3.168-2.042-6.794-2.042-11.003  c0-3.834,0.667-7.335,1.959-10.461c1.292-3.168,3.126-5.835,5.46-8.127c2.334-2.251,5.126-4.001,8.419-5.251  c3.293-1.25,6.877-1.834,10.795-1.834c2.126,0,4.376,0.208,6.71,0.625s4.835,1.292,7.46,2.667l-2.876,9.461  c-1.417-0.834-3.001-1.5-4.668-2.001c-1.667-0.5-3.376-0.75-5.085-0.75c-4.251,0-7.669,1.292-10.336,3.918  c-2.626,2.584-3.959,6.418-3.959,11.42c0,2.959,0.417,5.418,1.292,7.46c0.875,2.042,1.959,3.626,3.334,4.876  c1.375,1.25,2.917,2.126,4.626,2.667c1.709,0.542,3.459,0.834,5.251,0.834L429.95,428.78z"></path>
<path class="oml-logo-type" d="M449.456,437.699v-73.312h13.462v73.312C462.918,437.699,449.456,437.699,449.456,437.699z"></path>
<path class="oml-logo-type" d="M473.879,393.062c2.959-1.709,6.043-3.043,9.336-3.959c3.293-0.917,6.793-1.375,10.461-1.375  c2.959,0,5.627,0.333,8.044,1.042c2.417,0.667,4.501,1.75,6.252,3.251c1.75,1.459,3.084,3.334,4.001,5.668  c0.917,2.292,1.375,5.043,1.375,8.252v31.842h-10.586l-1.25-5.043h-0.417c-1.584,1.917-3.584,3.418-6.002,4.501  c-2.417,1.084-5.251,1.625-8.461,1.625c-2.667,0-5.043-0.375-7.085-1.167c-2.042-0.792-3.793-1.834-5.251-3.168  c-1.459-1.334-2.501-2.917-3.251-4.793s-1.084-3.834-1.084-5.96c0-2.792,0.583-5.21,1.792-7.252c1.209-2.001,2.834-3.668,4.96-5.001  c2.126-1.292,4.585-2.251,7.46-2.876c2.834-0.625,5.918-0.917,9.169-0.917h6.168v-2.959c0-2.251-0.709-3.918-2.084-5.001  c-1.417-1.042-3.376-1.584-5.918-1.584c-2.001,0-4.001,0.292-6.127,0.917c-2.126,0.625-4.418,1.625-6.919,2.959l-4.71-9.044  L473.879,393.062z M499.761,416.276l-4.418,0.083c-4.168,0.125-7.085,0.834-8.711,2.084c-1.625,1.25-2.459,2.792-2.459,4.585  c0,2.334,0.709,3.918,2.126,4.793c1.417,0.875,3.001,1.292,4.793,1.292s3.459-0.5,5.085-1.542c1.625-1.042,2.834-2.209,3.626-3.584  v-7.71H499.761z"></path>
<path class="oml-logo-type" d="M571.031,413.401c0,3.918-0.583,7.419-1.75,10.586c-1.167,3.126-2.751,5.835-4.835,8.044  c-2.042,2.209-4.501,3.918-7.294,5.085c-2.792,1.167-5.835,1.75-9.128,1.75s-5.96-0.5-8.211-1.5s-4.251-2.376-5.96-4.168h-0.417  l-0.917,4.501h-9.878v-73.312h13.545v28.341c1.709-1.584,3.709-2.792,6.002-3.709c2.292-0.875,4.751-1.334,7.335-1.334  c6.71,0,11.962,2.251,15.754,6.794c3.793,4.501,5.71,10.836,5.71,18.88L571.031,413.401z M556.943,413.692  c0-5.085-1-8.919-2.959-11.545c-2-2.626-4.793-3.959-8.419-3.959c-1.917,0-3.709,0.458-5.335,1.375  c-1.625,0.917-2.959,1.959-3.918,3.126v22.506c0.875,1.042,2.042,1.876,3.459,2.584c1.417,0.667,2.876,1.042,4.46,1.042  s3.251-0.292,4.793-0.917c1.542-0.625,2.917-1.542,4.126-2.792c1.209-1.25,2.126-2.792,2.834-4.668  c0.667-1.876,1.042-4.126,1.042-6.71L556.943,413.692z"></path>
<polygon class="oml-logo-mark" points="124.617,408.858 105.612,405.857 79.647,411.4 62.642,414.693 43.887,411.4 54.807,436.073   79.647,447.535 106.154,441.783 121.575,423.278 "></polygon>
<g id="Line">
	<path class="oml-logo-type" d="M40.969,407.066c0-23.715,19.422-43.137,43.137-43.137c6.46,0,12.962,1.334,18.88,4.335l20.506-20.506   c-2.709-3.251-2.417-8.086,0.542-11.336c3.251-3.251,8.627-3.251,11.878,0l18.88,18.88c3.251,3.251,3.251,8.627,0,11.878   c-4.585,4.585-9.961,1.625-11.336,0.542l-20.506,20.506c2.959,5.918,4.335,12.42,4.335,18.88c0,9.961-7.294,43.428-47.18,42.595   c-28.049,0-39.094-29.383-39.094-42.595L40.969,407.066z M150.708,363.387c1.084-1.084,1.084-2.959,0-4.335l-18.88-18.88   c-1.334-1.084-3.251-1.084-4.335,0.25c-1.084,1.084-1.084,2.709,0,4.043l1.334,1.334l16.171,16.171l1.334,1.334   c1.334,1.084,3.251,1.334,4.335,0c0.167,0,0.167,0,0,0L150.708,363.387z M127.243,351.509l-21.839,21.839   c-0.792,0.792-2.167,1.084-3.251,0.542c-18.338-9.961-41.261-3.251-51.222,15.087c-2.959,5.668-4.585,11.878-4.585,18.047   c0,0.25,16.463,8.627,34.509,1.334c8.086-3.251,17.546-7.544,34.509-3.501l6.46,1.625c0-6.21-1.625-12.128-4.585-17.546   c-0.542-1.084-0.25-2.417,0.542-3.251l4.335-4.335l-4.835-4.835c-1.084-1.084-1.084-2.709,0-3.793c1.084-1.084,2.709-1.084,3.793,0   l4.835,4.835l4.335-4.335l-4.835-4.835c-1.084-1.084-1.084-2.709,0-3.793c1.084-1.084,2.709-1.084,3.793,0l4.835,4.835l5.668-5.668   l-12.42-12.42L127.243,351.509z M84.106,444.826c18.88,0,35.051-14.004,37.469-32.884l-7.002-1.625   c-19.422-3.501-24.257,0-31.55,3.251c-11.336,5.126-24.257,4.335-35.843,0.25C50.43,431.864,65.768,444.826,84.106,444.826z"></path>
</g>
</svg>